<svg width="32" height="30" viewBox="0 0 32 30" fill="none" xmlns="http://www.w3.org/2000/svg">
<path fill-rule="evenodd" clip-rule="evenodd" d="M14.9809 1.8562C7.72745 1.8562 1.85115 7.55188 1.87384 14.5826C1.87384 17.0053 2.58513 19.3781 3.92048 21.4099L3.97659 21.4946L3.99342 21.5169L4.01804 21.5504C4.03415 21.5729 4.04964 21.5959 4.06451 21.6192L4.08338 21.6499L4.09091 21.663C4.13483 21.7413 4.16931 21.8152 4.18969 21.8742L4.19406 21.8874L3.07499 25.8978C3.03787 26.0228 3.0142 26.1514 3.00438 26.2813L3.00225 26.3096L3.00186 26.338C2.99644 26.7347 3.15141 27.117 3.43223 27.3999C3.71306 27.6827 4.09642 27.8425 4.4969 27.8437L4.54718 27.8438L4.59718 27.8387L4.63485 27.8344C4.78526 27.8157 4.93278 27.7791 5.07417 27.7252L5.11187 27.7102L9.08731 26.2893L9.11072 26.2794C9.21786 26.2345 9.33309 26.2115 9.44945 26.2119C9.56009 26.2121 9.66749 26.2318 9.76863 26.2703L9.84701 26.3001C10.3286 26.4813 11.0093 26.7116 11.6317 26.8841C12.6568 27.1683 14.1455 27.404 15.1911 27.404C22.3932 27.404 28.1089 21.6774 28.1089 14.5883C28.1084 13.7106 28.0144 12.8358 27.8286 11.9781C26.5753 6.12189 21.2238 1.8562 14.9809 1.8562ZM14.9808 3.71245C20.3412 3.71245 24.9262 7.36716 25.9959 12.3654C26.1545 13.0977 26.2345 13.8422 26.2349 14.5889C26.2349 20.6569 21.3534 25.5478 15.1911 25.5478C14.332 25.5478 13.0083 25.3382 12.1367 25.0966L12.0402 25.0694C11.4737 24.9081 10.8532 24.6953 10.442 24.5381C10.1255 24.4177 9.7911 24.3561 9.45376 24.3557L9.41295 24.3559C9.07294 24.3597 8.7348 24.4271 8.4179 24.5545L8.40773 24.5587L5.05867 25.7558L6.02588 22.2902C6.11432 21.9705 6.08472 21.6559 5.98293 21.3344C5.92166 21.1409 5.83475 20.9501 5.72996 20.7633L5.7017 20.7137L5.66603 20.6552C5.62301 20.5863 5.57751 20.5189 5.52962 20.4531L5.51333 20.4311L5.52554 20.4496C4.36587 18.7075 3.74774 16.6665 3.74774 14.5796C3.72839 8.58395 8.75437 3.71245 14.9808 3.71245ZM11.2436 14.85C11.2436 15.8751 10.4046 16.7062 9.36967 16.7062C8.33473 16.7062 7.49574 15.8751 7.49574 14.85C7.49574 13.8248 8.33473 12.9937 9.36967 12.9937C10.4046 12.9937 11.2436 13.8248 11.2436 14.85ZM14.9915 16.7062C16.0264 16.7062 16.8654 15.8751 16.8654 14.85C16.8654 13.8248 16.0264 12.9937 14.9915 12.9937C13.9565 12.9937 13.1175 13.8248 13.1175 14.85C13.1175 15.8751 13.9565 16.7062 14.9915 16.7062ZM22.4871 14.85C22.4871 15.8751 21.6481 16.7062 20.6132 16.7062C19.5782 16.7062 18.7392 15.8751 18.7392 14.85C18.7392 13.8248 19.5782 12.9937 20.6132 12.9937C21.6481 12.9937 22.4871 13.8248 22.4871 14.85Z" fill="#333333"/>
<line x1="2.43142" y1="2.6001" x2="27.3001" y2="27.4687" stroke="#333333" stroke-width="1.6" stroke-linecap="round" stroke-linejoin="round"/>
</svg>
