<svg viewBox="0 0 805 694" fill="none" xmlns="http://www.w3.org/2000/svg">
<g clip-path="url(#clip0)">
<path fill-rule="evenodd" clip-rule="evenodd" d="M229.481 12C160.195 12 109.674 66.4997 114.79 136.844C119.65 203.596 170.802 259.128 229.481 259.128C288.129 259.128 339.221 203.628 344.171 136.869C349.325 67.2872 298.445 12 229.481 12ZM376.556 337.946C375.782 337.416 375.004 336.89 374.221 336.368C333.324 309.109 281.799 294.432 229.482 294.432C177.166 294.432 125.64 309.109 84.745 336.368C40.0455 366.164 10.1565 409.338 0.683854 461.861C-3.42739 484.65 11.3602 506.256 35.3104 506.256H321.437V621.946C321.437 624.707 323.675 626.946 326.437 626.946H598.869C601.63 626.946 603.869 624.707 603.869 621.946V342.946C603.869 340.185 601.63 337.946 598.869 337.946H376.556Z" fill="#FF3030" fill-opacity="0.1"/>
<path fill-rule="evenodd" clip-rule="evenodd" d="M161.232 151.171C156.713 89.0286 201.343 40.8835 262.55 40.8835C323.473 40.8835 368.42 89.7242 363.867 151.193C359.494 210.168 314.36 259.196 262.55 259.196C210.714 259.196 165.525 210.139 161.232 151.171ZM332.765 148.888C335.984 105.438 305.276 72.071 262.551 72.071C219.482 72.071 189.131 104.812 192.338 148.907C195.513 192.521 228.202 228.009 262.551 228.009C296.873 228.009 329.529 192.535 332.765 148.888ZM134.69 327.43C170.816 303.349 216.334 290.384 262.551 290.384C308.767 290.384 354.285 303.349 390.412 327.43C408.138 339.245 423.227 353.441 435.233 369.696H393.687C387.443 363.799 380.573 358.351 373.116 353.381C342.267 332.819 302.78 321.571 262.552 321.571C222.323 321.571 182.836 332.819 151.989 353.381C119.337 375.146 97.9349 406.061 91.1238 443.827C90.9359 444.868 91.0099 445.732 91.1847 446.27L91.2029 446.321H324.05V477.509H91.0193C69.8618 477.509 56.7984 458.422 60.4303 438.29C68.7984 391.892 95.2023 353.751 134.69 327.43Z" fill="#A41916"/>
<path fill-rule="evenodd" clip-rule="evenodd" d="M753.867 394.264L777.483 417.88L790.477 404.47C792.558 402.389 793.707 399.231 793.707 396.264C793.716 393.344 792.56 390.54 790.494 388.474L783.289 381.269C781.222 379.195 778.411 378.032 775.482 378.04C772.537 378.04 769.358 379.184 767.285 381.269L753.867 394.264ZM617.394 554.352H640.705L772.477 422.91L748.84 399.269L617.394 531.041V554.352Z" fill="#A41916"/>
<path fill-rule="evenodd" clip-rule="evenodd" d="M535.801 397.259H392.301C369.657 397.259 351.301 415.671 351.301 438.384V644.009C351.301 666.721 369.657 685.134 392.301 685.134H535.801C558.444 685.134 576.801 666.721 576.801 644.009V438.384C576.801 415.671 558.444 397.259 535.801 397.259ZM392.301 417.821H535.801C547.122 417.821 556.301 427.027 556.301 438.384V644.009C556.301 655.365 547.122 664.571 535.801 664.571H392.301C380.979 664.571 371.801 655.365 371.801 644.009V438.384C371.801 427.027 380.979 417.821 392.301 417.821ZM525.551 458.946C525.551 453.268 520.961 448.665 515.301 448.665H412.801L412.599 448.667C407.031 448.775 402.551 453.335 402.551 458.946C402.551 464.624 407.14 469.227 412.801 469.227H515.301L515.502 469.225C521.07 469.118 525.551 464.557 525.551 458.946ZM515.301 500.071C520.961 500.071 525.551 504.674 525.551 510.352C525.551 515.963 521.07 520.524 515.502 520.632L515.301 520.634H412.801C407.14 520.634 402.551 516.03 402.551 510.352C402.551 504.742 407.031 500.181 412.599 500.073L412.801 500.071H515.301ZM474.301 561.759C474.301 556.08 469.711 551.477 464.051 551.477H412.801L412.599 551.479C407.031 551.587 402.551 556.148 402.551 561.759C402.551 567.437 407.14 572.04 412.801 572.04H464.051L464.252 572.038C469.82 571.93 474.301 567.369 474.301 561.759Z" fill="#A41916"/>
<path d="M412.801 448.665V448.165L412.796 448.165L412.801 448.665ZM412.599 448.667L412.594 448.167L412.589 448.167L412.599 448.667ZM515.301 469.227V469.727L515.305 469.727L515.301 469.227ZM515.502 469.225L515.507 469.725L515.512 469.725L515.502 469.225ZM515.502 520.632L515.507 521.132L515.512 521.131L515.502 520.632ZM515.301 520.634V521.134L515.305 521.134L515.301 520.634ZM412.599 500.073L412.594 499.573L412.589 499.573L412.599 500.073ZM412.801 500.071V499.571L412.796 499.571L412.801 500.071ZM412.801 551.477V550.977L412.796 550.977L412.801 551.477ZM412.599 551.479L412.594 550.979L412.589 550.979L412.599 551.479ZM464.051 572.04V572.54L464.055 572.54L464.051 572.04ZM464.252 572.038L464.257 572.538L464.262 572.538L464.252 572.038ZM392.301 397.759H535.801V396.759H392.301V397.759ZM351.801 438.384C351.801 415.946 369.934 397.759 392.301 397.759V396.759C369.379 396.759 350.801 415.396 350.801 438.384H351.801ZM351.801 644.009V438.384H350.801V644.009H351.801ZM392.301 684.634C369.934 684.634 351.801 666.447 351.801 644.009H350.801C350.801 666.996 369.379 685.634 392.301 685.634V684.634ZM535.801 684.634H392.301V685.634H535.801V684.634ZM576.301 644.009C576.301 666.447 558.167 684.634 535.801 684.634V685.634C558.722 685.634 577.301 666.996 577.301 644.009H576.301ZM576.301 438.384V644.009H577.301V438.384H576.301ZM535.801 397.759C558.167 397.759 576.301 415.946 576.301 438.384H577.301C577.301 415.396 558.722 396.759 535.801 396.759V397.759ZM535.801 417.321H392.301V418.321H535.801V417.321ZM556.801 438.384C556.801 426.752 547.4 417.321 535.801 417.321V418.321C546.845 418.321 555.801 427.302 555.801 438.384H556.801ZM556.801 644.009V438.384H555.801V644.009H556.801ZM535.801 665.071C547.4 665.071 556.801 655.64 556.801 644.009H555.801C555.801 655.09 546.845 664.071 535.801 664.071V665.071ZM392.301 665.071H535.801V664.071H392.301V665.071ZM371.301 644.009C371.301 655.64 380.701 665.071 392.301 665.071V664.071C381.256 664.071 372.301 655.09 372.301 644.009H371.301ZM371.301 438.384V644.009H372.301V438.384H371.301ZM392.301 417.321C380.701 417.321 371.301 426.752 371.301 438.384H372.301C372.301 427.302 381.256 418.321 392.301 418.321V417.321ZM515.301 449.165C520.684 449.165 525.051 453.543 525.051 458.946H526.051C526.051 452.993 521.239 448.165 515.301 448.165V449.165ZM412.801 449.165H515.301V448.165H412.801V449.165ZM412.604 449.167L412.805 449.165L412.796 448.165L412.594 448.167L412.604 449.167ZM403.051 458.946C403.051 453.607 407.314 449.269 412.609 449.167L412.589 448.167C406.748 448.28 402.051 453.064 402.051 458.946H403.051ZM412.801 468.727C407.417 468.727 403.051 464.35 403.051 458.946H402.051C402.051 464.899 406.862 469.727 412.801 469.727V468.727ZM515.301 468.727H412.801V469.727H515.301V468.727ZM515.497 468.725L515.296 468.727L515.305 469.727L515.507 469.725L515.497 468.725ZM525.051 458.946C525.051 464.285 520.787 468.623 515.493 468.725L515.512 469.725C521.353 469.612 526.051 464.828 526.051 458.946H525.051ZM526.051 510.352C526.051 504.399 521.239 499.571 515.301 499.571V500.571C520.684 500.571 525.051 504.949 525.051 510.352H526.051ZM515.512 521.131C521.353 521.018 526.051 516.234 526.051 510.352H525.051C525.051 515.691 520.787 520.029 515.493 520.132L515.512 521.131ZM515.305 521.134L515.507 521.132L515.497 520.132L515.296 520.134L515.305 521.134ZM412.801 521.134H515.301V520.134H412.801V521.134ZM402.051 510.352C402.051 516.305 406.862 521.134 412.801 521.134V520.134C407.417 520.134 403.051 515.756 403.051 510.352H402.051ZM412.589 499.573C406.748 499.686 402.051 504.47 402.051 510.352H403.051C403.051 505.013 407.314 500.675 412.609 500.573L412.589 499.573ZM412.796 499.571L412.594 499.573L412.604 500.573L412.805 500.571L412.796 499.571ZM515.301 499.571H412.801V500.571H515.301V499.571ZM464.051 551.977C469.434 551.977 473.801 556.355 473.801 561.759H474.801C474.801 555.806 469.989 550.977 464.051 550.977V551.977ZM412.801 551.977H464.051V550.977H412.801V551.977ZM412.604 551.979L412.805 551.977L412.796 550.977L412.594 550.979L412.604 551.979ZM403.051 561.759C403.051 556.419 407.314 552.082 412.609 551.979L412.589 550.979C406.748 551.092 402.051 555.876 402.051 561.759H403.051ZM412.801 571.54C407.417 571.54 403.051 567.162 403.051 561.759H402.051C402.051 567.711 406.862 572.54 412.801 572.54V571.54ZM464.051 571.54H412.801V572.54H464.051V571.54ZM464.247 571.538L464.046 571.54L464.055 572.54L464.257 572.538L464.247 571.538ZM473.801 561.759C473.801 567.098 469.537 571.435 464.243 571.538L464.262 572.538C470.103 572.425 474.801 567.641 474.801 561.759H473.801Z" fill="#A41916"/>
</g>
<defs>
<clipPath id="clip0">
<rect width="805" height="694" fill="white"/>
</clipPath>
</defs>
</svg>
